<mxfile host="app.diagrams.net" modified="2020-08-09T15:37:54.122Z" agent="5.0 (Windows NT 10.0; Win64; x64) AppleWebKit/537.36 (KHTML, like Gecko) Chrome/84.0.4147.105 Safari/537.36" etag="_emFG5iVtowhga35lgoR" version="13.6.2" type="github">
  <diagram id="6cYgxUQzI2fVGewEJsUK" name="Page-1">
    <mxGraphModel dx="1422" dy="552" grid="1" gridSize="10" guides="1" tooltips="1" connect="1" arrows="1" fold="1" page="1" pageScale="1" pageWidth="827" pageHeight="1169" math="0" shadow="0">
      <root>
        <mxCell id="0" />
        <mxCell id="1" parent="0" />
        <mxCell id="hysGb0AJLGx7654P0HZ9-5" style="edgeStyle=none;rounded=0;orthogonalLoop=1;jettySize=auto;html=1;exitX=0.5;exitY=1;exitDx=0;exitDy=0;entryX=0.5;entryY=0;entryDx=0;entryDy=0;" edge="1" parent="1" source="hysGb0AJLGx7654P0HZ9-3" target="hysGb0AJLGx7654P0HZ9-4">
          <mxGeometry relative="1" as="geometry" />
        </mxCell>
        <mxCell id="hysGb0AJLGx7654P0HZ9-3" value="App is being opened" style="rounded=0;whiteSpace=wrap;html=1;" vertex="1" parent="1">
          <mxGeometry x="30" y="20" width="120" height="60" as="geometry" />
        </mxCell>
        <mxCell id="hysGb0AJLGx7654P0HZ9-4" value="" style="shape=parallelogram;perimeter=parallelogramPerimeter;whiteSpace=wrap;html=1;fixedSize=1;" vertex="1" parent="1">
          <mxGeometry x="30" y="110" width="120" height="60" as="geometry" />
        </mxCell>
      </root>
    </mxGraphModel>
  </diagram>
</mxfile>
